<?xml version="1.0" encoding="UTF-8" standalone="no"?>
<svg
   viewBox="0 0 720 120"
   version="1.1"
   id="svg1"
   sodipodi:docname="logo_full.svg"
   inkscape:version="1.4.2 (ebf0e940, 2025-05-08)"
   xmlns:inkscape="http://www.inkscape.org/namespaces/inkscape"
   xmlns:sodipodi="http://sodipodi.sourceforge.net/DTD/sodipodi-0.dtd"
   xmlns="http://www.w3.org/2000/svg"
   xmlns:svg="http://www.w3.org/2000/svg">
  <sodipodi:namedview
     id="namedview1"
     pagecolor="#ffffff"
     bordercolor="#000000"
     borderopacity="0.25"
     inkscape:showpageshadow="2"
     inkscape:pageopacity="0.0"
     inkscape:pagecheckerboard="0"
     inkscape:deskcolor="#d1d1d1"
     inkscape:zoom="1.0652174"
     inkscape:cx="349.22449"
     inkscape:cy="45.061224"
     inkscape:window-width="1424"
     inkscape:window-height="687"
     inkscape:window-x="-21"
     inkscape:window-y="70"
     inkscape:window-maximized="0"
     inkscape:current-layer="svg1" />
  <defs
     id="defs1">
    <style
       id="style1">
      text { font-family: 'Futura', 'Futura PT', 'Century Gothic', sans-serif; font-weight: bold; }
    </style>
    <inkscape:path-effect
       effect="perspective-envelope"
       up_left_point="20.52,134.04087"
       up_right_point="72,134.04087"
       down_left_point="17.823871,171.25329"
       down_right_point="72.656286,171.25329"
       id="path-effect36"
       is_visible="true"
       lpeversion="1"
       deform_type="envelope_deformation"
       horizontal_mirror="false"
       vertical_mirror="false"
       overflow_perspective="false" />
  </defs>
  <g
     transform="scale(0.8)"
     id="g1"
     style="display:inline">
    <!-- Book path from drawing.svg, scaled to 100px tall, positioned at (10, 15) -->
    <path
       transform="matrix(2.856,0,0,2.856,-205.36,-345.49)"
       fill="oklch(0.712 0.194 13.428)"
       d="m 75.40625,126.22427 0.125117,18.70421 c 1.88996,-0.77127 2.378924,-0.653 3.975658,0.0417 -1.408503,1.42755 -1.855761,1.2194 -3.850611,9.09725 l 0.06464,7.02069 c 7.583695,-1.83408 16.553949,-2.35324 27.108146,0 9.92872,-2.4141 18.99247,-2.02234 27.55074,0 l -1.1e-4,-12.92802 c -2.13421,-5.89797 -4.50462,-10.37903 -7.11115,-13.44318 0.23772,-0.84228 5.13545,-1.26302 7.06271,5.6e-4 l -0.11296,-8.64179 c -8.78331,-1.97007 -18.23439,-2.69509 -27.38808,0.25649 -8.676127,-2.53504 -17.738654,-2.67823 -27.422366,-0.10774 z"
       id="path1"
       style="display:none;fill:#ff637e;fill-opacity:1" />
    <path
       style="display:inline;fill:#ff637e;fill-opacity:1;stroke-width:0.999985;stroke-dasharray:none"
       d="m 20.343347,136.47907 -2.205408,34.77422 c 7.996608,-3.17538 17.0703,-4.36103 27.038442,0 9.434197,-4.138 18.531784,-3.35699 27.479905,0 l -0.227517,-12.89477 c -2.166804,-5.88282 -4.504008,-10.35236 -7.022823,-13.40863 0.221509,-0.84011 4.882751,-1.25977 6.740122,5.6e-4 l -0.257528,-8.61958 c -9.23329,-2.82393 -17.862865,-3.36486 -25.757307,0.25584 -7.552636,-3.3606 -16.097125,-3.37731 -25.786199,-0.10747 z"
       id="path30-3"
       sodipodi:nodetypes="ccccccccccc"
       inkscape:path-effect="#path-effect36"
       inkscape:original-d="m 17.823871,136.47907 0.314068,34.77422 c 7.808922,-3.17538 16.877512,-4.36103 27.038442,0 9.384149,-4.138 18.54169,-3.35699 27.479905,0 l -1.04e-4,-12.89477 c -2.128729,-5.88282 -4.493044,-10.35236 -7.092874,-13.40863 0.23711,-0.84011 5.122253,-1.25977 7.04455,5.6e-4 l -0.112662,-8.61958 c -9.791467,-2.82393 -18.999586,-3.36486 -27.317671,0.25584 -8.15457,-3.3606 -17.269473,-3.37731 -27.351852,-0.10747 z"
       transform="matrix(2.8192783,0,0,2.8192783,-37.736566,-368.23301)"
       inkscape:label="version2" />
    <!-- Text -->
    <text
       x="182"
       y="118"
       font-size="123.5px"
       fill="oklch(0.712 0.194 13.428)"
       id="text1"
       style="display:inline;fill:#ff637e;fill-opacity:1">yomimono</text>
  </g>
</svg>
